<mxfile host="Electron" modified="2024-02-20T15:29:19.644Z" agent="Mozilla/5.0 (Macintosh; Intel Mac OS X 10_15_7) AppleWebKit/537.36 (KHTML, like Gecko) draw.io/21.6.8 Chrome/114.0.5735.289 Electron/25.5.0 Safari/537.36" etag="PB-rC_EmpUN-3Q3hQ0qR" version="21.6.8" type="device">
  <diagram name="Page-1" id="bHb9pw4INFyl-OV4UC9b">
    <mxGraphModel dx="1194" dy="824" grid="1" gridSize="10" guides="1" tooltips="1" connect="1" arrows="1" fold="1" page="1" pageScale="1" pageWidth="850" pageHeight="1100" math="1" shadow="0">
      <root>
        <mxCell id="0" />
        <mxCell id="1" parent="0" />
        <mxCell id="NodyjAbnp0VnACEIWbQh-16" value="" style="verticalLabelPosition=bottom;verticalAlign=top;html=1;shape=process;whiteSpace=wrap;rounded=1;size=0.14;arcSize=6;" parent="1" vertex="1">
          <mxGeometry x="100" y="230" width="630" height="370" as="geometry" />
        </mxCell>
        <mxCell id="NodyjAbnp0VnACEIWbQh-3" value="" style="edgeStyle=orthogonalEdgeStyle;rounded=0;orthogonalLoop=1;jettySize=auto;html=1;fillColor=#dae8fc;strokeColor=#6c8ebf;strokeWidth=4;entryX=0;entryY=0.5;entryDx=0;entryDy=0;" parent="1" source="NodyjAbnp0VnACEIWbQh-4" target="NodyjAbnp0VnACEIWbQh-5" edge="1">
          <mxGeometry relative="1" as="geometry">
            <mxPoint x="410" y="200" as="targetPoint" />
            <Array as="points" />
          </mxGeometry>
        </mxCell>
        <mxCell id="NodyjAbnp0VnACEIWbQh-18" style="edgeStyle=orthogonalEdgeStyle;rounded=0;orthogonalLoop=1;jettySize=auto;html=1;entryX=0;entryY=0.5;entryDx=0;entryDy=0;strokeWidth=5;fillColor=#d5e8d4;strokeColor=#82b366;" parent="1" source="NodyjAbnp0VnACEIWbQh-4" target="NodyjAbnp0VnACEIWbQh-6" edge="1">
          <mxGeometry relative="1" as="geometry" />
        </mxCell>
        <mxCell id="NodyjAbnp0VnACEIWbQh-4" value="&lt;span style=&quot;font-size: 14px;&quot;&gt;嵌入层&lt;/span&gt;" style="verticalLabelPosition=bottom;verticalAlign=top;html=1;shape=process;whiteSpace=wrap;rounded=1;size=0.14;arcSize=6;fillColor=#eeeeee;strokeColor=#36393d;" parent="1" vertex="1">
          <mxGeometry x="200" y="360" width="180" height="110" as="geometry" />
        </mxCell>
        <mxCell id="NodyjAbnp0VnACEIWbQh-5" value="&lt;font style=&quot;font-size: 14px;&quot;&gt;排序层&lt;/font&gt;" style="verticalLabelPosition=bottom;verticalAlign=top;html=1;shape=process;whiteSpace=wrap;rounded=1;size=0.14;arcSize=6;fillColor=#b0e3e6;strokeColor=#0e8088;" parent="1" vertex="1">
          <mxGeometry x="430" y="270" width="200" height="110" as="geometry" />
        </mxCell>
        <mxCell id="NodyjAbnp0VnACEIWbQh-6" value="&lt;span style=&quot;font-size: 14px;&quot;&gt;评估层&lt;/span&gt;" style="verticalLabelPosition=bottom;verticalAlign=top;html=1;shape=process;whiteSpace=wrap;rounded=1;size=0.14;arcSize=6;fillColor=#d0cee2;strokeColor=#56517e;" parent="1" vertex="1">
          <mxGeometry x="430" y="460" width="200" height="105" as="geometry" />
        </mxCell>
        <mxCell id="NodyjAbnp0VnACEIWbQh-7" value="" style="endArrow=classic;html=1;rounded=0;entryX=0;entryY=0.5;entryDx=0;entryDy=0;fillColor=#ffe6cc;strokeColor=#d79b00;strokeWidth=4;exitX=0;exitY=0.5;exitDx=0;exitDy=0;" parent="1" source="NodyjAbnp0VnACEIWbQh-16" target="NodyjAbnp0VnACEIWbQh-4" edge="1">
          <mxGeometry width="50" height="50" relative="1" as="geometry">
            <mxPoint x="120" y="426" as="sourcePoint" />
            <mxPoint x="60" y="395.62" as="targetPoint" />
          </mxGeometry>
        </mxCell>
        <mxCell id="NodyjAbnp0VnACEIWbQh-8" value="" style="endArrow=classic;html=1;rounded=0;exitX=1;exitY=0.5;exitDx=0;exitDy=0;entryX=1;entryY=0.5;entryDx=0;entryDy=0;strokeWidth=4;fillColor=#dae8fc;strokeColor=#6c8ebf;" parent="1" source="NodyjAbnp0VnACEIWbQh-5" target="NodyjAbnp0VnACEIWbQh-16" edge="1">
          <mxGeometry width="50" height="50" relative="1" as="geometry">
            <mxPoint x="430" y="550.62" as="sourcePoint" />
            <mxPoint x="730" y="395.625" as="targetPoint" />
          </mxGeometry>
        </mxCell>
        <mxCell id="NodyjAbnp0VnACEIWbQh-20" value="" style="endArrow=classic;html=1;rounded=0;exitX=1;exitY=0.5;exitDx=0;exitDy=0;entryX=1;entryY=0.5;entryDx=0;entryDy=0;strokeWidth=4;fillColor=#d5e8d4;strokeColor=#82b366;" parent="1" source="NodyjAbnp0VnACEIWbQh-6" target="NodyjAbnp0VnACEIWbQh-16" edge="1">
          <mxGeometry width="50" height="50" relative="1" as="geometry">
            <mxPoint x="480" y="450" as="sourcePoint" />
            <mxPoint x="530" y="400" as="targetPoint" />
          </mxGeometry>
        </mxCell>
        <mxCell id="NodyjAbnp0VnACEIWbQh-22" value="&lt;font style=&quot;font-size: 18px;&quot;&gt;输入&lt;/font&gt;" style="text;html=1;align=center;verticalAlign=middle;resizable=0;points=[];autosize=1;strokeColor=none;fillColor=none;" parent="1" vertex="1">
          <mxGeometry x="40" y="395" width="60" height="40" as="geometry" />
        </mxCell>
        <mxCell id="NodyjAbnp0VnACEIWbQh-23" value="&lt;font style=&quot;font-size: 18px;&quot;&gt;输出&lt;/font&gt;" style="text;html=1;align=center;verticalAlign=middle;resizable=0;points=[];autosize=1;strokeColor=none;fillColor=none;" parent="1" vertex="1">
          <mxGeometry x="730" y="395" width="60" height="40" as="geometry" />
        </mxCell>
      </root>
    </mxGraphModel>
  </diagram>
</mxfile>
